<?xml version="1.0" standalone="no"?>
<!DOCTYPE svg PUBLIC "-//W3C//DTD SVG 20010904//EN"
 "http://www.w3.org/TR/2001/REC-SVG-20010904/DTD/svg10.dtd">
<svg version="1.0" xmlns="http://www.w3.org/2000/svg"
 width="200.000000pt" height="200.000000pt" viewBox="0 0 200.000000 200.000000"
 preserveAspectRatio="xMidYMid meet">

<g transform="translate(0.000000,200.000000) scale(0.100000,-0.100000)"
fill="#000000" stroke="none">
<path d="M0 1000 l0 -1000 377 2 376 3 12 53 c7 30 18 59 24 65 6 6 11 21 11
34 0 13 9 28 20 35 11 7 20 21 20 30 0 10 3 18 8 18 4 0 18 23 31 50 14 28 29
50 33 50 4 0 8 9 8 21 0 12 8 23 20 26 11 3 17 9 14 14 -3 5 3 9 13 9 15 0 16
2 3 10 -12 8 -12 10 5 11 l20 0 -20 9 c-18 7 -16 8 10 12 17 3 -16 6 -72 7
-116 1 -134 6 -126 29 16 43 128 224 144 232 10 6 71 11 136 11 113 1 214 14
153 19 l-25 2 25 8 c14 4 19 8 13 9 -24 2 -13 21 11 21 14 0 28 4 31 10 4 6
-19 10 -63 10 -53 0 -72 4 -84 18 -9 9 -75 119 -148 245 l-132 227 47 83 c77
133 95 159 108 155 7 -2 80 -118 164 -258 84 -139 157 -256 163 -260 7 -4 11
-11 10 -16 0 -5 9 -26 20 -47 23 -40 45 -45 45 -8 0 12 6 25 14 30 7 5 11 13
8 18 -8 13 29 43 53 43 11 0 20 6 20 13 0 18 26 46 75 82 22 17 47 37 55 46 8
8 23 18 33 22 9 3 17 11 17 17 0 17 26 40 44 40 9 0 16 4 16 9 0 5 16 16 36
26 19 9 38 23 41 30 2 8 13 17 23 20 10 3 35 21 56 40 27 25 47 35 71 35 l33
0 0 290 0 290 -1000 0 -1000 0 0 -1000z m879 66 c60 -100 70 -132 52 -151 -5
-6 -64 -104 -131 -220 -67 -115 -129 -216 -138 -222 -11 -9 -57 -13 -148 -13
-110 0 -133 3 -138 16 -6 15 384 691 407 706 17 11 31 -6 96 -116z m521 -126
c0 -5 -5 -10 -11 -10 -5 0 -7 5 -4 10 3 6 8 10 11 10 2 0 4 -4 4 -10z m-457
-517 c-7 -2 -19 -2 -25 0 -7 3 -2 5 12 5 14 0 19 -2 13 -5z"/>
<path d="M1396 897 c3 -10 9 -15 12 -12 3 3 0 11 -7 18 -10 9 -11 8 -5 -6z"/>
</g>
</svg>
