<?xml version="1.0" standalone="no"?>
<!DOCTYPE svg PUBLIC "-//W3C//DTD SVG 20010904//EN"
 "http://www.w3.org/TR/2001/REC-SVG-20010904/DTD/svg10.dtd">
<svg version="1.0" xmlns="http://www.w3.org/2000/svg"
 width="64.000000pt" height="64.000000pt" viewBox="0 0 64.000000 64.000000"
 preserveAspectRatio="xMidYMid meet">

<g transform="translate(0.000000,64.000000) scale(0.100000,-0.100000)"
fill="#000000" stroke="none">
<path d="M240 627 c-91 -26 -173 -97 -213 -186 -29 -64 -29 -178 0 -243 30
-66 95 -133 162 -165 80 -39 182 -39 262 0 67 32 132 99 162 165 32 72 30 180
-6 253 -32 66 -100 132 -162 160 -57 25 -148 32 -205 16z m181 -134 l99 -58 0
-115 0 -115 -100 -59 -100 -58 -100 58 -100 59 0 115 0 115 98 57 c53 32 99
58 101 58 2 0 48 -26 102 -57z"/>
<path d="M249 424 l-57 -34 0 -70 0 -70 60 -35 c32 -19 63 -35 68 -35 5 0 36
16 68 35 l60 35 0 70 0 70 -60 35 c-32 19 -64 35 -71 34 -7 0 -37 -16 -68 -35z"/>
</g>
</svg>
